<svg version="1.2" baseProfile="tiny-ps" xmlns="http://www.w3.org/2000/svg" viewBox="0 0 241 54" width="241" height="54">
	<title>HEADER</title>
	<style>
		tspan { white-space:pre }
		.shp0 { fill: #ffffff } 
	</style>
	<g id="HEADER">
		<g id="Nav">
			<g id="Logo">
				<path id="Logo" class="shp0" d="M22.92 48.4L51.54 48.15L30.98 12.96L14.19 42.89L9.67 42.93L28.98 9.36L25.75 3.83L0 48.6L17.44 48.45L31.08 24.14L41.89 42.64L25.24 42.79L22.92 48.4ZM67.68 53.99L36.37 0.22L36.74 0.01L68.05 53.77L67.68 53.99ZM70.48 20.81L70.48 20.76C70.48 15.54 74.58 11.3 80.04 11.3C85.5 11.3 89.54 15.48 89.54 20.71L89.54 20.76C89.54 25.98 85.44 30.22 79.99 30.22C74.53 30.22 70.48 26.03 70.48 20.81ZM84.54 20.81L84.54 20.76C84.54 18.13 82.69 15.85 79.99 15.85C77.31 15.85 75.51 18.08 75.51 20.71L75.51 20.76C75.51 23.38 77.36 25.67 80.04 25.67C82.74 25.67 84.54 23.44 84.54 20.81ZM94.62 11.66L99.2 11.66L106.48 21.28L106.48 11.66L111.33 11.66L111.33 29.85L107.03 29.85L99.48 19.88L99.48 29.85L94.62 29.85L94.62 11.66ZM121.32 16.08L116.01 16.08L116.01 11.66L131.53 11.66L131.53 16.08L126.22 16.08L126.22 29.85L121.32 29.85L121.32 16.08ZM136.31 11.66L141.23 11.66L141.23 29.85L136.31 29.85L136.31 11.66ZM146.39 20.81L146.39 20.76C146.39 15.46 150.36 11.3 155.72 11.3C159.33 11.3 161.65 12.86 163.22 15.09L159.53 18.03C158.52 16.73 157.36 15.9 155.67 15.9C153.19 15.9 151.45 18.06 151.45 20.71L151.45 20.76C151.45 23.49 153.19 25.62 155.67 25.62C157.51 25.62 158.6 24.74 159.66 23.41L163.35 26.11C161.68 28.48 159.43 30.22 155.51 30.22C150.46 30.22 146.39 26.24 146.39 20.81ZM167.98 11.66L182.21 11.66L182.21 15.95L172.83 15.95L172.83 18.71L181.32 18.71L181.32 22.68L172.83 22.68L172.83 25.57L182.33 25.57L182.33 29.85L167.98 29.85L167.98 11.66ZM187.37 11.66L192.27 11.66L192.27 25.44L200.83 25.44L200.83 29.85L187.37 29.85L187.37 11.66ZM205.46 11.66L210.37 11.66L210.37 25.44L218.93 25.44L218.93 29.85L205.46 29.85L205.46 11.66ZM221.94 20.81L221.94 20.76C221.94 15.54 226.04 11.3 231.5 11.3C236.96 11.3 241 15.48 241 20.71L241 20.76C241 25.98 236.91 30.22 231.45 30.22C225.99 30.22 221.94 26.03 221.94 20.81ZM236 20.81L236 20.76C236 18.13 234.15 15.85 231.45 15.85C228.77 15.85 226.97 18.08 226.97 20.71L226.97 20.76C226.97 23.38 228.82 25.67 231.5 25.67C234.2 25.67 236 23.44 236 20.81ZM51.42 25.48L51.42 19.46L55.92 26.53L56.02 26.53L60.55 19.41L60.55 29.85L65.42 29.85L65.42 11.66L60.24 11.66L56.02 18.71L51.8 11.66L46.62 11.66L46.62 17.24L51.42 25.48ZM71.49 39.71L72.17 39.71L72.17 45.77L71.49 45.77L71.49 39.71ZM77.37 39.71L78.01 39.71L81.79 44.56L81.79 39.71L82.45 39.71L82.45 45.77L81.91 45.77L78.03 40.8L78.03 45.77L77.37 45.77L77.37 39.71ZM89.18 40.34L87.16 40.34L87.16 39.71L91.88 39.71L91.88 40.34L89.87 40.34L89.87 45.77L89.18 45.77L89.18 40.34ZM96.59 39.71L100.94 39.71L100.94 40.33L97.27 40.33L97.27 42.4L100.55 42.4L100.55 43.02L97.27 43.02L97.27 45.14L100.98 45.14L100.98 45.77L96.59 45.77L96.59 39.71ZM105.78 39.71L108.37 39.71C109.11 39.71 109.7 39.93 110.08 40.31C110.37 40.61 110.54 41.03 110.54 41.51L110.54 41.52C110.54 42.53 109.85 43.12 108.91 43.29L110.76 45.77L109.92 45.77L108.18 43.41L106.46 43.41L106.46 45.77L105.78 45.77L105.78 39.71ZM108.31 42.8C109.21 42.8 109.85 42.33 109.85 41.55L109.85 41.53C109.85 40.79 109.29 40.34 108.32 40.34L106.46 40.34L106.46 42.8L108.31 42.8ZM115.43 39.71L116.07 39.71L119.85 44.56L119.85 39.71L120.51 39.71L120.51 45.77L119.97 45.77L116.09 40.8L116.09 45.77L115.43 45.77L115.43 39.71ZM127.88 39.66L128.51 39.66L131.25 45.77L130.52 45.77L129.82 44.17L126.55 44.17L125.83 45.77L125.14 45.77L127.88 39.66ZM129.55 43.55L128.19 40.46L126.81 43.55L129.55 43.55ZM136.69 40.34L134.67 40.34L134.67 39.71L139.4 39.71L139.4 40.34L137.38 40.34L137.38 45.77L136.69 45.77L136.69 40.34ZM144.17 39.71L144.84 39.71L144.84 45.77L144.17 45.77L144.17 39.71ZM149.78 42.75L149.78 42.74C149.78 41.07 151.02 39.6 152.85 39.6C154.68 39.6 155.91 41.05 155.91 42.72L155.91 42.74C155.91 44.41 154.66 45.87 152.83 45.87C151 45.87 149.78 44.43 149.78 42.75ZM155.2 42.75L155.2 42.74C155.2 41.36 154.21 40.23 152.83 40.23C151.46 40.23 150.48 41.34 150.48 42.72L150.48 42.74C150.48 44.11 151.48 45.24 152.85 45.24C154.22 45.24 155.2 44.13 155.2 42.75ZM160.78 39.71L161.41 39.71L165.2 44.56L165.2 39.71L165.86 39.71L165.86 45.77L165.32 45.77L161.44 40.8L161.44 45.77L160.78 45.77L160.78 39.71ZM173.23 39.66L173.86 39.66L176.6 45.77L175.87 45.77L175.17 44.17L171.9 44.17L171.18 45.77L170.49 45.77L173.23 39.66ZM174.9 43.55L173.53 40.46L172.16 43.55L174.9 43.55ZM181.22 39.71L181.9 39.71L181.9 45.13L185.29 45.13L185.29 45.77L181.22 45.77L181.22 39.71ZM195.72 42.75L195.72 42.74C195.72 41.07 196.94 39.6 198.74 39.6C199.75 39.6 200.38 39.9 200.98 40.41L200.54 40.93C200.08 40.52 199.56 40.23 198.71 40.23C197.38 40.23 196.43 41.37 196.43 42.72L196.43 42.74C196.43 44.18 197.35 45.26 198.81 45.26C199.49 45.26 200.13 44.99 200.54 44.65L200.54 43.14L198.71 43.14L198.71 42.53L201.19 42.53L201.19 44.94C200.64 45.45 199.79 45.87 198.78 45.87C196.89 45.87 195.72 44.49 195.72 42.75ZM206.16 39.71L208.75 39.71C209.48 39.71 210.08 39.93 210.45 40.31C210.75 40.61 210.92 41.03 210.92 41.51L210.92 41.52C210.92 42.53 210.23 43.12 209.29 43.29L211.13 45.77L210.3 45.77L208.56 43.41L206.84 43.41L206.84 45.77L206.16 45.77L206.16 39.71ZM208.69 42.8C209.59 42.8 210.23 42.33 210.23 41.55L210.23 41.53C210.23 40.79 209.66 40.34 208.69 40.34L206.84 40.34L206.84 42.8L208.69 42.8ZM215.54 42.75L215.54 42.74C215.54 41.07 216.79 39.6 218.62 39.6C220.44 39.6 221.67 41.05 221.67 42.72L221.67 42.74C221.67 44.41 220.43 45.87 218.6 45.87C216.77 45.87 215.54 44.43 215.54 42.75ZM220.97 42.75L220.97 42.74C220.97 41.36 219.97 40.23 218.6 40.23C217.22 40.23 216.25 41.34 216.25 42.72L216.25 42.74C216.25 44.11 217.24 45.24 218.62 45.24C219.99 45.24 220.97 44.13 220.97 42.75ZM226.45 43.23L226.45 39.71L227.13 39.71L227.13 43.19C227.13 44.49 227.82 45.23 228.97 45.23C230.07 45.23 230.78 44.55 230.78 43.23L230.78 39.71L231.46 39.71L231.46 43.18C231.46 44.94 230.45 45.86 228.95 45.86C227.46 45.86 226.45 44.94 226.45 43.23ZM236.5 39.71L238.75 39.71C240.11 39.71 241 40.43 241 41.63L241 41.65C241 42.95 239.92 43.63 238.64 43.63L237.18 43.63L237.18 45.77L236.5 45.77L236.5 39.71ZM238.66 43C239.66 43 240.31 42.47 240.31 41.67L240.31 41.65C240.31 40.79 239.67 40.34 238.7 40.34L237.18 40.34L237.18 43L238.66 43Z" />
			</g>
		</g>
	</g>
</svg>